<svg xmlns="http://www.w3.org/2000/svg" viewBox="0 0 448 512"><path d="M283.2 345.5c2.7 2.7 2.7 7.1 0 9.8-22.2 22.1-65.3 22.2-87.5 0-2.7-2.7-2.7-7.1 0-9.8 2.7-2.7 7.1-2.7 9.8 0 16.5 16.6 50.6 16.5 67.1 0 2.7-2.8 7.1-2.8 9.8 0zm-75.6-26.4c8.1 0 14.7-6.6 14.7-14.7 0-8.1-6.6-14.7-14.7-14.7-8.1 0-14.7 6.6-14.7 14.7 0 8.1 6.6 14.7 14.7 14.7zm88.8-29.4c-8.1 0-14.7 6.6-14.7 14.7 0 8.1 6.6 14.7 14.7 14.7 8.1 0 14.7-6.6 14.7-14.7 0-8.1-6.6-14.7-14.7-14.7zM224 32C101.5 32 0 128.9 0 240c0 54.5 28.9 104.7 77.8 139.1-1.5 9.5-8.1 26.4-28.8 34.5-7.5 3.1-6.2 13.8 1.8 15.1 53.6 8.8 97.7-1.2 124.6-17.8 32.1 6.3 66.3 6.4 98.9 0 26.7 16.5 70.7 26.7 124.6 17.8 8-1.3 9.3-12 1.8-15.1-20.6-8.2-27.2-25-28.8-34.5 48.9-34.5 77.8-84.6 77.8-139.1 0-111.1-101.5-208-224-208zm125.2 282.6c-6.6 6.6-17.3 6.6-24 0-28.1 19.6-65.7 19.6-93.8 0-6.6 6.6-17.3 6.6-24 0-6.6-6.6-6.6-17.3 0-24 6.6-6.6 17.3-6.6 24 0 22.1-15.4 52.7-18.6 78.7-9.4l19.6-98.4-58-13.7-12.4 62c-2.9 14.4-23.3 14.9-26.3 0l-12.4-62-58 13.7-19.5 98.4c26 9.1 56.5 6 78.7-9.4 6.6-6.6 17.3-6.6 24 0 6.6 6.6 6.6 17.3 0 24zm69.6-64.6c-13 0-23.6-10.5-23.6-23.5s10.5-23.5 23.6-23.5c13 0 23.6 10.5 23.6 23.5s-10.6 23.5-23.6 23.5z"/></svg>
